<svg width="50" height="30" viewBox="0 0 50 30" fill="none" xmlns="http://www.w3.org/2000/svg">
<g clip-path="url(#clip0_25_359)">
<path d="M14.1447 10.8552L14.4737 12.3355C14.4737 12.8289 14.6381 13.1579 14.9671 13.6513V13.9802L14.8026 14.4737L13.6513 15.1316L13.3223 15.296L12.8289 15.1316L12.171 14.3092L11.6776 13.3223C10.3618 14.8026 8.71709 15.625 6.90788 15.625C5.42761 15.625 4.2763 15.1316 3.6184 14.3092C2.79603 13.6513 2.30261 12.5 2.30261 11.1842C2.30261 9.8684 2.79603 8.71708 3.78288 7.89472C4.76972 6.90787 6.08551 6.57893 7.89472 6.57893C9.11807 6.57224 10.3362 6.73835 11.5131 7.07235V5.92103C11.5131 4.60524 11.1842 3.78287 10.6908 3.28945C10.1973 2.63156 9.37498 2.46709 8.05919 2.46709L6.24998 2.63156C5.45858 2.83362 4.6877 3.10893 3.94735 3.45393H3.6184C3.45393 3.45393 3.28945 3.28945 3.28945 2.96051V2.13814L3.45393 1.64472C3.45393 1.48024 3.6184 1.31577 3.94735 1.31577L5.92103 0.493401L8.55261 0.164454C10.5263 0.164454 11.8421 0.657875 12.8289 1.48024C13.6513 2.46709 14.1447 3.78287 14.1447 5.59208V10.8552ZM7.56577 13.4868L9.21051 13.1579C9.8684 12.9934 10.3618 12.5 10.8552 12.0066L11.3487 11.0197L11.5131 9.53945V8.88156C10.4874 8.65342 9.43893 8.54306 8.38814 8.55261C7.4013 8.55261 6.57893 8.71708 5.92103 9.21051C5.42761 9.53945 5.26314 10.1973 5.26314 11.0197C5.26314 11.8421 5.42761 12.3355 5.75656 12.8289C6.24998 13.1579 6.7434 13.4868 7.56577 13.4868ZM20.7237 15.1316L20.0658 14.9671L19.7368 14.4737L15.9539 1.64472L15.7895 0.986822L16.1184 0.657875H17.7631L18.421 0.822348L18.75 1.48024L21.546 12.3355L24.0131 1.48024L24.3421 0.822348L25 0.657875H26.3158L26.9737 0.822348L27.3026 1.48024L29.9342 12.5L32.7302 1.48024L33.0592 0.822348L33.7171 0.657875H35.1973C35.5263 0.657875 35.6908 0.822348 35.6908 0.986822V1.31577L35.5263 1.64472L31.5789 14.4737L31.25 15.1316L30.5921 15.296H29.1118L28.4539 15.1316L28.2895 14.4737L25.6579 3.78287L23.1908 14.3092L22.8618 14.9671L22.2039 15.1316H20.7237ZM41.9408 15.625C40.4074 15.6134 38.8939 15.277 37.5 14.6381L37.0066 14.1447L36.8421 13.8158V12.9934C36.8421 12.6645 37.0066 12.5 37.171 12.5H37.5L37.9934 12.6645C39.1786 13.2134 40.4702 13.4942 41.7763 13.4868C42.7631 13.4868 43.5855 13.1579 44.0789 12.8289C44.7368 12.5 44.9013 12.0066 44.9013 11.3487L44.5723 10.1973L42.9276 9.37498L40.4605 8.55261C39.3092 8.22366 38.3223 7.56577 37.8289 6.90787C37.5093 6.48918 37.2768 6.01075 37.1449 5.50077C37.0131 4.9908 36.9846 4.4596 37.0613 3.93846C37.1379 3.41733 37.3181 2.9168 37.5912 2.46638C37.8642 2.01595 38.2247 1.62473 38.6513 1.31577L40.296 0.493401C41.3525 0.13142 42.4783 0.0188341 43.5855 0.164454C44.2521 0.291778 44.9111 0.456512 45.5592 0.657875L46.2171 0.986822L46.7105 1.31577L46.875 1.97366V2.63156C46.875 3.12498 46.7105 3.28945 46.546 3.28945L45.8881 2.96051C44.9013 2.63156 43.9145 2.46709 42.7631 2.46709C41.7763 2.46709 40.9539 2.46709 40.4605 2.79603C39.9671 3.12498 39.8026 3.6184 39.8026 4.2763C39.8026 4.76972 39.9671 5.09866 40.296 5.42761C40.625 5.75656 41.1184 6.08551 42.1052 6.41445L44.4079 7.07235C45.5592 7.56577 46.3816 8.05919 46.875 8.71708C47.3684 9.37498 47.6973 10.1973 47.6973 11.0197L47.2039 12.9934L46.0526 14.3092C45.5592 14.8026 44.9013 15.1316 44.2434 15.296L41.9408 15.625Z" fill="#252F3E"/>
<path fill-rule="evenodd" clip-rule="evenodd" d="M45.0658 23.6842C38.3565 28.1653 30.342 30.2755 22.2959 29.6795C14.2498 29.0835 6.63375 25.8154 0.657913 20.3947C1.80006e-05 19.9013 0.493439 19.4079 0.98686 19.7368C7.52133 23.4385 14.8145 25.5996 22.3108 26.0557C29.807 26.5117 37.3084 25.2506 44.2434 22.3684C45.0658 22.0395 45.8882 23.0263 45.0658 23.6842Z" fill="#FF9900"/>
<path fill-rule="evenodd" clip-rule="evenodd" d="M47.2039 21.0526C46.546 20.2303 42.5987 20.5592 40.9539 20.8882C40.296 20.8882 40.296 20.3947 40.7895 20.0658C43.9145 17.9276 49.0131 18.5855 49.5066 19.2434C50.1645 20.0658 49.3421 25.1645 46.546 27.6316C46.0526 27.9605 45.5592 27.796 45.7237 27.3026C46.546 25.6579 47.8618 21.875 47.2039 21.0526Z" fill="#FF9900"/>
</g>
<defs>
<clipPath id="clip0_25_359">
<rect width="50" height="29.9342" fill="white"/>
</clipPath>
</defs>
</svg>
