<svg width="45" height="51" viewBox="0 0 45 51" fill="none" xmlns="http://www.w3.org/2000/svg">
<g clip-path="url(#clip0_25_337)">
<path d="M44.8003 14.9878C44.8003 14.1448 44.6188 13.3996 44.254 12.7609C43.8671 12.1022 43.3101 11.5596 42.6414 11.1902C36.7025 7.76263 30.7566 4.35076 24.8229 0.923185C23.2226 -0.0017719 21.6711 0.0331323 20.083 0.970306C17.72 2.36298 5.88573 9.14309 2.36043 11.185C0.906672 12.0297 0.201611 13.3159 0.19812 14.986V35.644C0.19812 36.4677 0.37264 37.1972 0.719936 37.8272C1.0777 38.4765 1.62221 39.0175 2.35694 39.4433C5.88399 41.4852 17.7182 48.2653 20.0812 49.658C21.6711 50.5969 23.2226 50.63 24.8229 49.7051C30.7601 46.2775 36.7043 42.8639 42.6414 39.4416C43.3265 39.0647 43.8941 38.5061 44.2819 37.8272C44.6292 37.1972 44.802 36.466 44.802 35.6422L44.8003 14.9878Z" fill="#A179DC"/>
<path d="M22.5681 25.2479L0.71814 37.829C1.07765 38.4748 1.62215 39.0158 2.35863 39.4433C5.88394 41.4852 17.7182 48.2653 20.0812 49.658C21.671 50.5969 23.2225 50.6301 24.8229 49.7051C30.7601 46.2776 36.7042 42.8639 42.6414 39.4416C43.3264 39.0648 43.8941 38.5062 44.2819 37.8273L22.5681 25.2479Z" fill="#280068"/>
<path d="M44.8003 14.9878C44.8003 14.1449 44.6187 13.3997 44.254 12.7609L22.5681 25.2479L44.2802 37.8255C44.6292 37.1973 44.802 36.466 44.8037 35.6423C44.8037 35.6423 44.8037 21.8726 44.8003 14.9878Z" fill="#390091"/>
<path d="M35.4337 20.5463V22.8971H37.7845V20.5445H38.959V22.8971H41.3115V24.0716H38.959V26.4241H41.3115V27.6004H38.959V29.9512H37.7845V27.5969H35.432V29.9494H34.2574V27.5969H31.9049V26.4224H34.2557V24.0716H31.9049V22.8953H34.2557V20.5428L35.4337 20.5463ZM37.7845 24.0716H35.432V26.4241H37.7845V24.0716Z" fill="white"/>
<path d="M22.6169 8.73651C25.5261 8.7353 28.3844 9.49994 30.9044 10.9536C33.4244 12.4072 35.5174 14.4986 36.9729 17.0175L36.945 16.9704L29.7286 21.124C29.0076 19.9 27.9828 18.8828 26.7534 18.1711C25.524 17.4593 24.1316 17.077 22.7111 17.0611H22.6169C20.4276 17.0611 18.3279 17.9308 16.7799 19.4789C15.2318 21.027 14.3621 23.1266 14.3621 25.3159C14.3601 26.7528 14.735 28.1652 15.4494 29.4119C16.1729 30.6804 17.2201 31.7341 18.4841 32.4655C19.748 33.1969 21.1834 33.5797 22.6437 33.5749C24.104 33.5701 25.5369 33.1779 26.796 32.4382C28.0551 31.6986 29.0954 30.638 29.8106 29.3648L29.7757 29.4259L36.9817 33.5987C35.543 36.0947 33.4786 38.1726 30.9921 39.6275C28.5055 41.0824 25.6827 41.8641 22.8019 41.8954H22.6169C20.4394 41.8963 18.2831 41.4681 16.2711 40.6352C14.2592 39.8023 12.4312 38.5811 10.8914 37.0414C9.35171 35.5017 8.13051 33.6736 7.29764 31.6617C6.46477 29.6498 6.03656 27.4934 6.03748 25.3159C6.03748 20.9188 7.78423 16.7018 10.8935 13.5925C14.0027 10.4833 18.2198 8.73651 22.6169 8.73651Z" fill="white"/>
</g>
<defs>
<clipPath id="clip0_25_337">
<rect width="45" height="50.6301" fill="white"/>
</clipPath>
</defs>
</svg>
