<svg width="40" height="47" viewBox="0 0 40 47" fill="none" xmlns="http://www.w3.org/2000/svg">
<path d="M3.62832 40.708L0 0H39.9115L36.2832 40.708L19.9115 45.3097" fill="#0C73B8"/>
<path d="M20 41.7699L33.1858 38.1416L36.2832 3.27432H20" fill="#30A9DC"/>
<path d="M20 18.4071H8.31855L8.76103 23.4513H20V18.4071ZM20 8.31857H7.43359L7.87607 13.2743H20V8.31857ZM20 31.4159L9.02651 28.4956L9.64598 33.8053L20 36.6372V31.4159Z" fill="#ECEDEE"/>
<path d="M20 23.4513H26.1062L25.4867 29.9115L20 31.4159V36.6372L30.177 33.8053L32.4779 8.31857H20V13.2743H27.0796L26.5487 18.4071H20V23.4513Z" fill="white"/>
</svg>
