<svg width="45" height="45" viewBox="0 0 45 45" fill="none" xmlns="http://www.w3.org/2000/svg">
<g clip-path="url(#clip0_25_363)">
<path d="M44.1509 20.4962L24.5038 0.847346C23.9603 0.304304 23.2234 -0.000732422 22.4551 -0.000732422C21.6868 -0.000732422 20.9499 0.304304 20.4064 0.847346L16.3265 4.92547L21.5015 10.1022C22.1118 9.894 22.7684 9.8615 23.3963 10.0085C24.0242 10.1554 24.5981 10.4759 25.0526 10.9333C25.5071 11.3908 25.8239 11.9668 25.9668 12.5956C26.1097 13.2244 26.073 13.8808 25.8609 14.4897L30.8478 19.4784C31.5932 19.2221 32.4039 19.2291 33.1448 19.4981C33.8857 19.7671 34.5121 20.2819 34.9195 20.9567C35.3268 21.6315 35.4907 22.4255 35.3836 23.2064C35.2765 23.9873 34.9051 24.708 34.3311 25.2482C33.7571 25.7885 33.0154 26.1157 32.2294 26.1754C31.4434 26.2351 30.6607 26.0236 30.0118 25.5761C29.3629 25.1287 28.8869 24.4724 28.6632 23.7166C28.4394 22.9608 28.4815 22.1511 28.7824 21.4225L24.1312 16.7696V29.011C24.8381 29.3606 25.4039 29.9419 25.7343 30.6581C26.0646 31.3743 26.1395 32.182 25.9464 32.9467C25.7534 33.7114 25.3041 34.3868 24.6734 34.8604C24.0428 35.3339 23.2689 35.5771 22.4807 35.5492C21.6925 35.5214 20.9377 35.2242 20.342 34.7073C19.7464 34.1904 19.3459 33.4849 19.2073 32.7085C19.0687 31.9321 19.2005 31.1317 19.5805 30.4406C19.9605 29.7496 20.566 29.2096 21.2958 28.9108V16.5587C20.8747 16.3862 20.492 16.132 20.1696 15.8108C19.8472 15.4896 19.5916 15.1077 19.4176 14.6872C19.2436 14.2668 19.1545 13.816 19.1556 13.3609C19.1566 12.9058 19.2478 12.4555 19.4238 12.0358L14.3191 6.93289L0.848956 20.4048C0.305378 20.9484 0 21.6856 0 22.4544C0 23.2231 0.305378 23.9604 0.848956 24.504L20.496 44.1511C21.0396 44.6946 21.7769 45 22.5456 45C23.3144 45 24.0516 44.6946 24.5952 44.1511L44.1509 24.5954C44.6946 24.0515 45 23.3139 45 22.5449C45 21.7759 44.6946 21.0383 44.1509 20.4944" fill="#DE4C36"/>
</g>
<defs>
<clipPath id="clip0_25_363">
<rect width="45" height="45" fill="white"/>
</clipPath>
</defs>
</svg>
