<svg width="40" height="47" viewBox="0 0 40 47" fill="none" xmlns="http://www.w3.org/2000/svg">
<path d="M3.62832 40.708L0 0H39.9115L36.2832 40.708L19.9115 45.3097" fill="#E34F26"/>
<path d="M20 41.7699L33.1858 38.1416L36.2832 3.27432H20" fill="#EF652A"/>
<path d="M20 18.4071H13.3628L12.9203 13.2743H20V8.31857H7.43359L8.76103 23.4513H20V18.4071ZM20 31.4159L14.3362 29.9115L13.9823 25.9292H9.02651L9.64598 33.8053L20 36.6372V31.4159Z" fill="#ECEDEE"/>
<path d="M20 23.4513H26.1062L25.4867 29.9115L20 31.4159V36.6372L30.177 33.8053L31.5929 18.4071H20V23.4513ZM20 8.31857V13.2743H32.0354L32.4779 8.31857H20Z" fill="white"/>
</svg>
