<svg width="45" height="45" viewBox="0 0 45 45" fill="none" xmlns="http://www.w3.org/2000/svg">
<g clip-path="url(#clip0_25_310)">
<path d="M0 0H45V45H0V0Z" fill="#F0DB4F"/>
<path d="M41.3171 34.2676C40.9877 32.2143 39.6488 30.4905 35.6835 28.8821C34.3061 28.249 32.7705 27.7957 32.3128 26.7519C32.1502 26.1445 32.1288 25.8023 32.2315 25.4344C32.5267 24.241 33.9511 23.8688 35.0804 24.211C35.8076 24.4548 36.4962 25.0152 36.9112 25.9092C38.8532 24.6517 38.8489 24.6602 40.2049 23.7961C39.7087 23.0262 39.4435 22.6711 39.1184 22.3418C37.9506 21.0371 36.3594 20.3655 33.8142 20.4169C33.3736 20.4725 32.9288 20.5323 32.4882 20.588C31.2178 20.9088 30.0072 21.5761 29.2971 22.4701C27.1669 24.8869 27.7743 29.1174 30.3665 30.8584C32.9202 32.7748 36.6716 33.2111 37.1507 35.0034C37.617 37.1978 35.5381 37.9078 33.472 37.6555C31.9492 37.3389 31.1023 36.5647 30.1868 35.1574C28.5015 36.1326 28.5015 36.1326 26.7691 37.1293C27.1797 38.0276 27.6117 38.434 28.3005 39.2125C31.56 42.519 39.7172 42.3565 41.1802 37.3517C41.2401 37.1806 41.6336 36.0342 41.3171 34.2676ZM24.4634 20.682H20.2543C20.2543 24.318 20.2373 27.9282 20.2373 31.5642C20.2373 33.8783 20.357 36 19.9806 36.6502C19.3646 37.9291 17.7691 37.7709 17.0419 37.5228C16.3019 37.1592 15.9255 36.6416 15.4892 35.9102C15.3694 35.7006 15.2796 35.538 15.2496 35.5252C14.1075 36.2224 12.9696 36.9239 11.8275 37.6212C12.3965 38.789 13.2348 39.8027 14.3085 40.4615C15.9126 41.4239 18.0685 41.7191 20.3228 41.2015C21.79 40.7737 23.0561 39.8883 23.7191 38.5409C24.6773 36.7742 24.472 34.6355 24.4634 32.27C24.4848 28.4116 24.4634 24.5532 24.4634 20.682Z" fill="#323330"/>
</g>
<defs>
<clipPath id="clip0_25_310">
<rect width="45" height="45" fill="white"/>
</clipPath>
</defs>
</svg>
