<svg width="25" height="54" viewBox="0 0 25 54" fill="none" xmlns="http://www.w3.org/2000/svg">
<g clip-path="url(#clip0_25_355)">
<path d="M17.1506 5.96756C14.9035 3.30145 12.9685 0.593535 12.5732 0.0312305C12.5638 0.021362 12.5525 0.0135052 12.5399 0.00813672C12.5274 0.00276823 12.5139 0 12.5003 0C12.4867 0 12.4732 0.00276823 12.4607 0.00813672C12.4482 0.0135052 12.4369 0.021362 12.4275 0.0312305C12.0321 0.593633 10.0971 3.30145 7.84992 5.96756C-11.4379 30.5668 10.8878 47.1678 10.8878 47.1678L11.075 47.2928C11.2414 49.8547 11.6576 53.5416 11.6576 53.5416H13.3222C13.3222 53.5416 13.7382 49.8756 13.9047 47.2929L14.092 47.147C14.1128 47.1679 36.4385 30.5669 17.1506 5.96756ZM12.4899 46.7928C12.4899 46.7928 11.4911 45.9388 11.2206 45.5015V45.4597L12.4275 18.6734C12.4275 18.5901 12.5524 18.5901 12.5524 18.6734L13.7591 45.4597V45.5015C13.4886 45.9388 12.4899 46.7929 12.4899 46.7929V46.7928Z" fill="#01EC64"/>
</g>
<defs>
<clipPath id="clip0_25_355">
<rect width="25" height="53.6133" fill="white"/>
</clipPath>
</defs>
</svg>
