<svg width="50" height="50" viewBox="0 0 50 50" fill="none" xmlns="http://www.w3.org/2000/svg">
<g clip-path="url(#clip0_25_344)">
<path d="M46.0937 37.8906C43.3593 37.8906 41.2109 38.0859 39.4531 38.8672C38.8671 39.0625 38.0859 39.0625 38.0859 39.6484L38.6718 40.8203C39.0625 41.4062 39.6484 42.3828 40.4296 42.9687L42.5781 44.5312L46.6796 46.4844L48.8281 48.2422L50 49.0234L49.414 47.8515L48.4375 46.875C47.4609 45.5078 46.289 44.3359 44.9218 43.3594C43.75 42.7734 41.4062 41.6015 41.0156 40.4297H40.8203L43.164 39.8437L46.6796 39.2578L48.2421 38.8672V38.4765L46.4843 36.5234C44.9218 34.9609 42.9687 33.5937 41.0156 32.2265L37.5 30.664C37.1093 30.4687 36.3281 30.2734 36.1328 29.8828L34.7656 27.3437L31.8359 21.4844L30.2734 17.5781C26.7578 11.7187 22.8515 8.20311 16.9921 4.88279C15.8203 4.10154 14.2578 3.90623 12.6953 3.51561L10.1562 3.32029L8.5937 2.14842C6.64057 0.976543 1.56245 -1.75783 0.195263 1.75779C-0.7813 3.90623 1.56245 6.05467 2.3437 7.22654L4.10151 9.76561L4.68745 11.5234C5.27339 13.0859 5.66401 14.8437 6.44526 16.2109L7.61714 18.164C8.00776 18.5547 8.39839 18.75 8.5937 19.3359C8.00776 20.1172 8.00776 21.0937 7.81245 21.875C6.44526 25.7812 7.0312 30.4687 8.78901 33.3984C9.17964 34.1797 10.5468 36.1328 12.3046 35.3515C13.8671 34.7656 13.4765 32.8125 13.8671 31.0547L14.0625 30.2734L15.625 33.0078C16.6015 34.7656 18.3593 36.5234 19.9218 37.6953C20.7031 38.2812 21.4843 39.2578 22.4609 39.6484L21.6796 38.8672L19.9218 36.914C18.3593 34.9609 17.1875 32.8125 16.0156 30.664L14.6484 27.3437L14.0625 26.1719C13.4765 26.9531 12.6953 27.539 12.3046 28.5156C11.7187 29.8828 11.7187 31.8359 11.5234 33.5937H11.3281C10.1562 33.3984 9.76558 32.2265 9.37495 31.25C8.39839 28.9062 8.20308 25 9.17964 22.2656C9.37495 21.4844 10.3515 19.3359 9.96089 18.5547C9.76558 17.9687 9.17964 17.5781 8.78901 17.1875L7.42182 14.8437L5.4687 8.98436L3.71089 6.44529C3.12495 5.46873 2.3437 4.88279 1.75776 3.71092C1.56245 3.32029 1.36714 2.73436 1.75776 2.34373L2.14839 1.95311C2.53901 1.56248 3.9062 1.95311 4.29682 2.14842C5.4687 2.73436 6.64057 3.12498 7.61714 3.90623L9.17964 5.07811H9.96089C11.1328 5.27342 12.3046 5.07811 13.2812 5.46873C15.039 6.05467 16.7968 6.83592 18.164 7.81248C22.6562 10.5469 26.3671 14.6484 28.7109 19.3359C29.2968 20.1172 29.2968 20.8984 29.6874 21.6797L32.0312 26.7578C32.8125 28.3203 33.3984 29.8828 34.375 31.25C34.9609 32.0312 37.1093 32.4219 37.8906 32.8125L40.2343 33.5937L43.75 35.9375C44.1406 36.3281 45.8984 37.3047 46.0937 37.8906Z" fill="#00546B"/>
<path d="M11.3281 8.39844L9.96094 8.59375L11.1328 9.96094L11.9141 11.7188V11.5234C12.5 11.3281 12.6953 10.7422 12.6953 9.96094L12.3047 9.17969L11.3281 8.39844Z" fill="#00546B"/>
</g>
<defs>
<clipPath id="clip0_25_344">
<rect width="50" height="49.2188" fill="white"/>
</clipPath>
</defs>
</svg>
