<svg width="50" height="49" viewBox="0 0 50 49" fill="none" xmlns="http://www.w3.org/2000/svg">
<path fill-rule="evenodd" clip-rule="evenodd" d="M28.9683 0.793681C28.6281 0.793681 28.3069 0.869267 28.0234 0.982645C28.647 1.37947 28.9872 1.92747 29.1572 2.55105C29.1572 2.64553 29.195 2.70222 29.2139 2.7967L29.2328 3.00457C29.2895 4.08166 28.9494 4.21394 28.7226 4.85642C28.3636 5.66896 28.458 6.5571 28.8927 7.25627C28.9305 7.35075 28.9683 7.44523 29.0438 7.52082C28.5714 4.4407 31.1413 3.96828 31.6327 3.00457C31.6704 2.17312 30.9713 1.60623 30.4233 1.2094C29.9878 0.935081 29.483 0.790851 28.9683 0.793681ZM32.8798 1.51175C32.8231 1.79519 32.8798 1.71961 32.8609 1.87078L32.8231 2.19202L32.7475 2.47546L32.6531 2.77781L32.5019 3.06125L32.4074 3.19353L32.3318 3.30691C32.2751 3.40139 32.2184 3.49587 32.1429 3.55256C32.0862 3.62815 32.0295 3.72263 31.9539 3.77932L31.7082 3.96828C31.4437 4.17615 31.1413 4.32732 30.8957 4.51628C30.8012 4.57297 30.7067 4.61076 30.65 4.70525C30.5556 4.74304 30.48 4.81862 30.4044 4.89421L30.1965 5.12097L30.0076 5.36662L29.8375 5.61228L29.7052 5.89572L29.6107 6.17917C29.5752 6.27865 29.5437 6.37951 29.5163 6.48151L29.4974 6.65158L29.4785 6.78385L29.4596 7.10509V7.31296L29.5163 7.6153C29.5163 7.72868 29.5351 7.80426 29.5729 7.91764L29.6674 8.20109L29.743 8.39005L26.9463 7.29406L25.5291 6.91613L24.7732 6.72717C24.0358 6.58321 23.2916 6.476 22.5435 6.40593H22.4679C20.4595 6.18966 18.4308 6.25325 16.4399 6.59489L15.873 6.70827C15.4951 6.76496 15.1361 6.85944 14.7959 6.93503L14.229 7.0862L13.7188 7.31296L13.3031 7.50192L13.2464 7.52082L12.9063 7.70978L12.8118 7.72868L12.4339 7.91764L12.2071 8.04992L12.0937 8.10661L11.7725 8.29557L11.4701 8.48454L11.2245 8.6546L11.2056 8.6735L10.9599 8.86246L10.771 9.01364L10.6954 9.07032L10.5064 9.2215C10.5064 9.25929 10.4875 9.25929 10.4686 9.27819L10.2419 9.46715V9.50494C10.1474 9.56163 10.0718 9.63722 10.0151 9.7128L9.97733 9.7317L9.78836 9.92066C9.78836 9.95846 9.73167 9.97735 9.71278 10.0151L9.52381 10.223L9.44823 10.2797L9.18367 10.582L9.14588 10.6198C8.75249 11.0499 8.30832 11.4306 7.82313 11.7536C7.11709 12.2355 6.34759 12.6171 5.53666 12.8874C5.02646 12.9819 4.49736 13.1898 4.04384 13.2275L3.7415 13.2653L3.43916 13.3409L3.13681 13.4543L2.85337 13.5866L2.58882 13.7566C2.49433 13.8133 2.39985 13.8889 2.34316 13.9645C2.24868 14.0212 2.1542 14.1157 2.09751 14.1913L1.88965 14.4369L1.70068 14.7015L1.53061 14.9849L1.39834 15.3062L1.28496 15.6274L1.22827 15.9108V15.9486L1.13379 16.2888V16.6856C1.1499 16.8436 1.19473 16.9973 1.26606 17.1391L1.39834 17.3659L1.54951 17.5926C1.68883 17.7322 1.84064 17.8587 2.00303 17.9706C2.28647 18.2351 2.36206 18.3296 2.73999 18.5185L2.92895 18.613H2.96674V18.6886C3.00549 18.8909 3.06896 19.0876 3.15571 19.2744L3.25019 19.5012L3.26909 19.5579C3.37199 19.7407 3.48556 19.9174 3.60922 20.087L3.79819 20.3137L4.04384 20.5216H4.06274C4.35715 20.7831 4.70553 20.9767 5.08315 21.0885L5.13984 21.1074L5.29101 21.1452C5.25321 21.8065 5.23432 22.4301 5.3477 22.6569C5.44218 22.8836 5.99018 22.1467 6.51928 21.2963C6.44369 22.1278 6.4059 23.1293 6.51928 23.4127C6.65155 23.7151 7.38851 22.7702 8.03099 21.712C10.0021 21.2339 12.0532 21.1862 14.0445 21.5721C16.0357 21.958 17.9204 22.7686 19.5702 23.9486C21.22 25.1285 22.5961 26.6502 23.6049 28.4099C24.6136 30.1696 25.2312 32.126 25.4157 34.1459C25.2646 32.8232 23.6395 32.1051 22.8836 32.2752C22.5057 33.1822 21.901 34.3538 20.8995 35.0718C20.9751 34.2593 20.9373 33.4278 20.7672 32.6153C20.5026 33.7491 19.9735 34.7884 19.2555 35.6954C18.6961 35.7334 18.1359 35.6326 17.6249 35.4018C17.1139 35.171 16.6679 34.8175 16.3265 34.3727L16.2321 34.2215L16.1376 33.9569L16.062 33.7113V33.2578C16.062 33.1633 16.0809 33.0688 16.1187 32.9932C16.1187 32.9176 16.1565 32.8232 16.1943 32.7476L16.3454 32.483C16.5344 31.9161 16.5344 31.4248 16.1565 31.1603L15.9486 31.028L15.7785 30.9713L15.6841 30.9335L15.4195 30.8768C15.3396 30.8535 15.257 30.8408 15.1739 30.839L14.9093 30.8201H14.7203L14.4558 30.8579L14.1912 30.9146L13.9456 30.9902L13.6999 31.1036L13.4543 31.2359C10.6198 33.0877 12.3205 37.4339 14.2479 38.7C13.5299 38.8322 12.774 38.9834 12.5661 39.1346L12.5472 39.1724C13.6685 39.8409 14.8954 40.3138 16.1754 40.5707C17.7162 40.8712 19.3019 40.8564 20.8368 40.5272C22.3718 40.1979 23.8241 39.5612 25.1062 38.6552C26.3883 37.7493 27.4735 36.593 28.2964 35.2561C29.1193 33.9193 29.6628 32.4295 29.8942 30.8768L29.9698 31.1981C30.0076 31.4248 30.0642 31.6516 30.0831 31.8972L30.1209 32.2185V32.2752L30.1587 32.5775L30.1776 32.9932V34.0136L30.1587 34.1648V34.4483C30.1209 34.486 30.1209 34.5238 30.1209 34.5427C30.1209 34.6561 30.1209 34.7317 30.0831 34.8262V34.9396C30.0831 35.0718 30.0454 35.1663 30.0265 35.2986V35.3175L29.9509 35.6576V35.6954C29.9509 35.8088 29.9131 35.9222 29.8753 36.0356V36.0733L29.7808 36.4135V36.4513L29.6863 36.7914V36.8103L29.5729 37.1882L29.4407 37.5284L29.2895 37.8874L29.1572 38.2464C29.0816 38.3409 29.0438 38.4732 28.9683 38.5866L28.9494 38.6622C28.9494 38.6622 28.9494 38.7 28.9116 38.7C28.107 40.3149 26.9357 41.7192 25.4913 42.8005L25.189 43.0083C25.189 43.0461 25.1323 43.0461 25.1134 43.0839L24.8488 43.2729L24.8866 43.3296L25.3968 43.254H25.4157C25.8269 43.1883 26.2364 43.1126 26.644 43.0272L26.8141 42.9894L27.0597 42.9328L27.2865 42.8761C28.4958 42.5926 29.6863 42.1769 30.8201 41.7045C28.8927 44.35 26.285 46.4853 23.2426 47.9025C26.4804 47.6832 29.6122 46.6592 32.3543 44.9236C35.0963 43.188 37.3619 40.7955 38.9456 37.963C38.4354 40.7975 37.3205 43.4619 35.6576 45.805C37.8927 44.3314 39.7953 42.4069 41.2434 40.1551C42.6915 37.9033 43.653 35.3738 44.0665 32.7287C44.4822 34.6561 44.5956 36.6402 44.4067 38.6055C53.2313 26.3228 45.1625 13.5677 41.7612 10.2041L41.7423 10.1474V10.1663L41.7234 10.1474L41.6856 10.582C41.6545 10.8538 41.6167 11.1247 41.5722 11.3946L41.3643 12.2071C41.1853 12.7282 40.9641 13.2337 40.7029 13.7189C40.219 14.5798 39.5855 15.3477 38.8322 15.9864L38.5488 16.251C38.1206 16.6029 37.651 16.9011 37.1504 17.1391L36.3946 17.4792C35.8684 17.6769 35.3241 17.8225 34.7695 17.9139L33.938 18.0272C33.1851 18.0673 32.4301 18.0165 31.6893 17.8761L30.8768 17.6682C32.2619 17.5454 33.6002 17.1057 34.7884 16.3832L35.4686 15.8919L36.0922 15.3439L36.6591 14.7393C36.8481 14.5314 37.0181 14.3046 37.1693 14.0779C37.2071 14.059 37.226 14.0023 37.2449 13.9645L37.6039 13.3787C37.8734 12.8977 38.0949 12.3914 38.2653 11.867C38.3409 11.6024 38.4165 11.319 38.4543 11.0545C38.511 10.771 38.5676 10.5065 38.5865 10.2419L38.6432 9.41046L38.6243 8.82467L38.511 8.01212C38.4732 7.72868 38.4165 7.44523 38.322 7.18068C38.2464 6.93503 38.1708 6.67048 38.0574 6.40593C37.963 6.14138 37.8496 5.89572 37.7173 5.65007L37.3016 4.932C36.9824 4.47634 36.6353 4.04089 36.2623 3.62815C35.6127 2.95177 34.844 2.40087 33.9947 2.00305C33.6357 1.7574 33.2577 1.62512 32.8798 1.51175Z" fill="#E0234E"/>
</svg>
