<svg width="55" height="55" viewBox="0 0 55 55" fill="none" xmlns="http://www.w3.org/2000/svg">
<mask id="mask0_25_306" style="mask-type:alpha" maskUnits="userSpaceOnUse" x="0" y="0" width="55" height="55">
<path d="M27.5 55C42.6878 55 55 42.6878 55 27.5C55 12.3122 42.6878 0 27.5 0C12.3122 0 0 12.3122 0 27.5C0 42.6878 12.3122 55 27.5 55Z" fill="black"/>
</mask>
<g mask="url(#mask0_25_306)">
<path d="M27.5 54.0833C42.1815 54.0833 54.0833 42.1816 54.0833 27.5C54.0833 12.8184 42.1815 0.916656 27.5 0.916656C12.8184 0.916656 0.916626 12.8184 0.916626 27.5C0.916626 42.1816 12.8184 54.0833 27.5 54.0833Z" fill="black" stroke="white" stroke-width="6"/>
<path d="M45.683 48.1311L21.1267 16.5H16.5V38.4908H20.2014V21.2005L42.7775 50.3693C43.7962 49.6876 44.7666 48.9393 45.683 48.1311Z" fill="url(#paint0_linear_25_306)"/>
<path d="M38.8056 16.5H35.1389V38.5H38.8056V16.5Z" fill="url(#paint1_linear_25_306)"/>
</g>
<defs>
<linearGradient id="paint0_linear_25_306" x1="33.3056" y1="35.5972" x2="44.1528" y2="49.0417" gradientUnits="userSpaceOnUse">
<stop stop-color="white"/>
<stop offset="1" stop-color="white" stop-opacity="0"/>
</linearGradient>
<linearGradient id="paint1_linear_25_306" x1="36.9722" y1="16.5" x2="36.9108" y2="32.6563" gradientUnits="userSpaceOnUse">
<stop stop-color="white"/>
<stop offset="1" stop-color="white" stop-opacity="0"/>
</linearGradient>
</defs>
</svg>
