<svg width="45" height="52" viewBox="0 0 45 52" fill="none" xmlns="http://www.w3.org/2000/svg">
<g clip-path="url(#clip0_25_325)">
<path d="M23.7169 0.321831C22.9533 -0.107603 22.0467 -0.107603 21.2831 0.321831L1.19303 11.9179C0.429434 12.3474 0 13.1586 0 14.0175V37.2572C0 38.1162 0.477246 38.9274 1.19303 39.3569L21.2831 50.9528C22.0467 51.3824 22.9533 51.3824 23.7169 50.9528L43.807 39.3569C44.5706 38.9274 45 38.1162 45 37.2572V14.0175C45 13.1586 44.5228 12.3474 43.807 11.9179L23.7169 0.321831Z" fill="url(#paint0_linear_25_325)"/>
<mask id="mask0_25_325" style="mask-type:luminance" maskUnits="userSpaceOnUse" x="0" y="-1" width="45" height="53">
<path d="M23.7169 0.321831C22.9533 -0.107603 22.0467 -0.107603 21.2831 0.321831L1.19303 11.9179C0.429434 12.3474 0 13.1586 0 14.0175V37.2572C0 38.1162 0.477246 38.9274 1.19303 39.3569L21.2831 50.9528C22.0467 51.3824 22.9533 51.3824 23.7169 50.9528L43.807 39.3569C44.5706 38.9274 45 38.1162 45 37.2572V14.0175C45 13.1586 44.5228 12.3474 43.807 11.9179L23.7169 0.321831Z" fill="white"/>
</mask>
<g mask="url(#mask0_25_325)">
<path d="M43.8548 11.918L23.669 0.322214C23.4781 0.226941 23.2395 0.131492 23.0486 0.0836792L0.429443 38.8322C0.620342 39.0707 0.859053 39.2616 1.09741 39.4049L21.2831 51.0008C21.8558 51.3348 22.5239 51.4303 23.1442 51.2394L44.3795 12.3952C44.2362 12.2043 44.0455 12.0612 43.8546 11.9182L43.8548 11.918Z" fill="url(#paint1_linear_25_325)"/>
</g>
<mask id="mask1_25_325" style="mask-type:luminance" maskUnits="userSpaceOnUse" x="0" y="-1" width="45" height="53">
<path d="M23.7169 0.321831C22.9533 -0.107603 22.0467 -0.107603 21.2831 0.321831L1.19303 11.9179C0.429434 12.3474 0 13.1586 0 14.0175V37.2572C0 38.1162 0.477246 38.9274 1.19303 39.3569L21.2831 50.9528C22.0467 51.3824 22.9533 51.3824 23.7169 50.9528L43.807 39.3569C44.5706 38.9274 45 38.1162 45 37.2572V14.0175C45 13.1586 44.5228 12.3474 43.807 11.9179L23.7169 0.321831Z" fill="white"/>
</mask>
<g mask="url(#mask1_25_325)">
<path d="M43.9024 39.3571C44.4751 39.0231 44.9046 38.4504 45.0955 37.8301L22.9534 0.0358786C22.3807 -0.0595707 21.7603 -0.0119339 21.2354 0.32205L1.19287 11.8705L22.8103 51.2874C23.0964 51.2395 23.4306 51.1441 23.717 51.0008L43.9024 39.3573V39.3571Z" fill="url(#paint2_linear_25_325)"/>
</g>
</g>
<defs>
<linearGradient id="paint0_linear_25_325" x1="3068.46" y1="896.65" x2="866.337" y2="4356.74" gradientUnits="userSpaceOnUse">
<stop stop-color="#41873F"/>
<stop offset="0.3288" stop-color="#418B3D"/>
<stop offset="0.6352" stop-color="#419637"/>
<stop offset="0.9319" stop-color="#3FA92D"/>
<stop offset="1" stop-color="#3FAE2A"/>
</linearGradient>
<linearGradient id="paint1_linear_25_325" x1="1902.46" y1="2827.66" x2="7417.36" y2="-168.6" gradientUnits="userSpaceOnUse">
<stop offset="0.1376" stop-color="#41873F"/>
<stop offset="0.4032" stop-color="#54A044"/>
<stop offset="0.7136" stop-color="#66B848"/>
<stop offset="0.9081" stop-color="#6CC04A"/>
</linearGradient>
<linearGradient id="paint2_linear_25_325" x1="-191.496" y1="2564.59" x2="4457.26" y2="2564.59" gradientUnits="userSpaceOnUse">
<stop offset="0.09192" stop-color="#6CC04A"/>
<stop offset="0.2864" stop-color="#66B848"/>
<stop offset="0.5968" stop-color="#54A044"/>
<stop offset="0.8624" stop-color="#41873F"/>
</linearGradient>
<clipPath id="clip0_25_325">
<rect width="45" height="51.3281" fill="white"/>
</clipPath>
</defs>
</svg>
