<svg width="48" height="48" viewBox="0 0 48 48" fill="none" xmlns="http://www.w3.org/2000/svg">
<path d="M23.084 11.277C21.451 8.82801 21.098 5.55501 21.021 4.21001C16.873 5.10701 12.752 6.71601 12.99 7.90101C13.02 8.05001 13.208 8.22901 13.52 8.40301L13.032 9.27601C12.436 8.94201 12.101 8.55701 12.01 8.09701C11.741 6.75601 13.26 5.54301 16.652 4.38801C18.2095 3.86954 19.7958 3.44248 21.403 3.10901L22 2.98901V3.60001C22 3.64201 22.026 7.88801 23.916 10.723L23.084 11.277ZM24.751 43H24.5C16.308 43 7.19104 40.427 6.11404 36.121C5.45704 33.491 7.60604 30.585 12.328 27.72L12.848 28.574C8.59904 31.153 6.55204 33.746 7.08504 35.879C8.02004 39.617 16.66 41.947 24.238 41.999C25.139 40.652 29.98 32.739 27.217 22.126L28.184 21.874C31.333 33.966 24.966 42.711 24.902 42.798L24.751 43Z" fill="#CFD8DC"/>
<path d="M9.9311 39.306C9.3921 39.306 9.1251 39.247 9.0811 39.236C8.99453 39.2153 8.91509 39.1718 8.85103 39.1101C8.78697 39.0483 8.74064 38.9705 8.71685 38.8847C8.69306 38.799 8.69269 38.7084 8.71577 38.6224C8.73885 38.5365 8.78455 38.4583 8.8481 38.396C8.9201 38.324 16.0451 31.188 17.0071 25.418L17.9931 25.582C17.1661 30.546 12.2781 36.205 10.3371 38.289C12.2761 38.178 17.1721 37.27 26.5711 32.009C19.2361 31.205 18.0761 25.333 18.0641 25.27L19.0471 25.089C19.0941 25.335 20.2731 31.1 28.2911 31.1H28.2991C28.4092 31.0998 28.5164 31.1359 28.6039 31.2029C28.6914 31.2698 28.7543 31.3637 28.7829 31.4701C28.8115 31.5765 28.8042 31.6893 28.7621 31.7911C28.72 31.8929 28.6455 31.9779 28.5501 32.033C17.3151 38.542 11.8671 39.305 9.9311 39.306Z" fill="#CFD8DC"/>
<path d="M14.524 41.7C14.4176 41.7008 14.3138 41.6676 14.2277 41.6053C14.1415 41.5429 14.0776 41.4547 14.0451 41.3535C14.0126 41.2522 14.0133 41.1432 14.0471 41.0424C14.0809 40.9416 14.146 40.8542 14.233 40.793C14.267 40.768 16.046 39.455 17.939 36.565C17.1841 36.2319 16.4507 35.8522 15.743 35.428C14.855 34.895 14.184 34.323 13.683 33.737C11.113 34.415 8.74096 34.683 6.65796 34.506L6.74196 33.51C8.61796 33.669 10.751 33.447 13.063 32.87C11.49 30.182 12.934 27.514 12.954 27.478L13.828 27.965C13.761 28.087 12.563 30.335 14.077 32.598C16.278 31.966 18.626 31.031 21.056 29.816C21.6716 27.7698 22.0819 25.6675 22.281 23.54C22.2889 23.4608 22.3156 23.3846 22.3589 23.3178C22.4021 23.2509 22.4607 23.1954 22.5297 23.1557C22.5987 23.116 22.6762 23.0933 22.7557 23.0896C22.8352 23.0858 22.9145 23.101 22.987 23.134C23.019 23.149 26.251 24.625 28.591 25.588C28.6745 25.6223 28.7472 25.6787 28.8013 25.751C28.8554 25.8233 28.8889 25.909 28.8982 25.9988C28.9076 26.0886 28.8924 26.1793 28.8543 26.2612C28.8162 26.3432 28.7567 26.4132 28.682 26.464C26.51 27.9528 24.2462 29.3028 21.904 30.506C21.2969 32.4561 20.472 34.3316 19.445 36.097C23.147 37.48 26.36 37.501 26.401 37.501C26.5121 37.5006 26.6201 37.5372 26.7081 37.605C26.7961 37.6728 26.859 37.7681 26.8868 37.8756C26.9147 37.9831 26.9059 38.0969 26.862 38.1989C26.818 38.3009 26.7413 38.3854 26.644 38.439C22.104 40.961 14.877 41.671 14.572 41.7H14.524ZM18.909 36.967C17.869 38.581 16.847 39.74 16.083 40.497C18.081 40.203 21.584 39.559 24.491 38.358C22.5808 38.1224 20.7063 37.6553 18.909 36.967ZM14.767 33.431C15.16 33.823 15.65 34.206 16.257 34.571C16.993 35.013 17.74 35.388 18.477 35.706C19.3367 34.256 20.0541 32.7262 20.619 31.138C18.598 32.1 16.636 32.868 14.767 33.431ZM23.202 24.329C23.0157 25.9657 22.7105 27.5866 22.289 29.179C24.023 28.2506 25.7122 27.2408 27.351 26.153C25.9613 25.5601 24.5783 24.9521 23.202 24.329ZM17.924 10.6C17.8048 10.5997 17.6897 10.5571 17.599 10.48C15.989 9.10199 14.094 6.29799 14.014 6.17899C13.9516 6.08611 13.9221 5.97499 13.9304 5.86341C13.9386 5.75183 13.984 5.64623 14.0594 5.56351C14.1347 5.4808 14.2356 5.42574 14.346 5.40716C14.4563 5.38857 14.5697 5.40753 14.668 5.46099C14.679 5.46399 15.606 5.84599 21.885 6.89199C21.9737 6.90631 22.0569 6.94431 22.1258 7.00198C22.1947 7.05966 22.2467 7.13487 22.2764 7.21967C22.3061 7.30448 22.3124 7.39573 22.2945 7.48379C22.2767 7.57185 22.2353 7.65346 22.175 7.71999C20.417 9.67299 18.196 10.533 18.102 10.568C18.0449 10.5888 17.9847 10.5997 17.924 10.6ZM15.647 6.74599C16.278 7.59499 17.187 8.74199 18.019 9.51499C19.017 9.05377 19.9416 8.44792 20.763 7.71699C18.18 7.27599 16.604 6.96199 15.647 6.74599Z" fill="#CFD8DC"/>
<path d="M21.8429 24.4C21.7729 24.4 21.7036 24.3852 21.6397 24.3567C21.5757 24.3282 21.5185 24.2866 21.4716 24.2346C21.4248 24.1825 21.3894 24.1212 21.3677 24.0546C21.346 23.9881 21.3386 23.9177 21.3459 23.848C21.6379 21.099 17.4199 19.996 17.3769 19.986C17.2914 19.9642 17.2131 19.9201 17.1501 19.8583C17.0872 19.7964 17.0417 19.719 17.0183 19.6339C16.995 19.5487 16.9945 19.459 17.0171 19.3736C17.0397 19.2883 17.0845 19.2104 17.1469 19.148C17.3539 18.941 22.2859 14.05 28.4739 11.364C28.5578 11.3276 28.6502 11.3148 28.7408 11.3272C28.8315 11.3396 28.917 11.3767 28.9881 11.4344C29.0592 11.492 29.113 11.5681 29.1439 11.6542C29.1747 11.7404 29.1813 11.8334 29.1629 11.923C27.9769 17.667 22.4529 23.967 22.2189 24.232C22.1713 24.2846 22.1133 24.3267 22.0486 24.3557C21.9839 24.3846 21.9138 24.3997 21.8429 24.4ZM18.4549 19.285C19.6389 19.73 21.7129 20.76 22.2379 22.641C23.6869 20.833 26.7799 16.668 27.9349 12.707C23.5479 14.817 19.8539 17.999 18.4549 19.285Z" fill="#B71C1C"/>
<path d="M13.079 28.36L12.604 27.48C14.487 26.465 16.644 24.597 18.411 22.426C16.907 23.456 16.046 24.161 16.019 24.184L15.38 23.414C15.419 23.382 17.144 21.967 20.011 20.194C20.798 18.928 21.403 17.626 21.714 16.378C21.767 16.166 21.813 15.961 21.85 15.763C19.925 15.076 18.149 14.669 16.929 14.494C16.8386 14.4812 16.7533 14.444 16.6826 14.3862C16.6118 14.3285 16.5582 14.2525 16.5276 14.1664C16.497 14.0804 16.4906 13.9876 16.509 13.8981C16.5274 13.8087 16.5699 13.726 16.632 13.659C16.717 13.567 18.748 11.391 21.286 10.196C21.3824 10.1506 21.4907 10.1372 21.5952 10.1577C21.6997 10.1782 21.7949 10.2316 21.867 10.31C21.934 10.383 23.307 11.925 22.958 15.115C24.113 15.565 25.303 16.112 26.449 16.763C29.208 15.523 32.341 14.407 35.678 13.733C35.7659 13.7164 35.8566 13.7231 35.941 13.7526C36.0254 13.7821 36.1006 13.8333 36.159 13.901C36.276 14.041 36.308 14.234 36.242 14.404C34.942 17.736 31.456 21.295 31.308 21.445C31.2581 21.495 31.1982 21.534 31.1322 21.5593C31.0662 21.5846 30.9956 21.5958 30.9251 21.592C30.8545 21.5882 30.7855 21.5696 30.7226 21.5374C30.6597 21.5052 30.6043 21.46 30.56 21.405C29.44 19.997 27.976 18.831 26.397 17.882C24.4445 18.7865 22.5465 19.8046 20.713 20.931C18.693 24.084 15.644 26.979 13.079 28.36ZM27.492 17.396C28.782 18.228 29.983 19.206 30.976 20.344C31.804 19.446 33.791 17.176 34.918 14.922C32.268 15.532 29.76 16.415 27.492 17.396ZM22.799 16.122C22.766 16.285 22.728 16.452 22.686 16.622C22.476 17.461 22.142 18.323 21.714 19.183C22.8966 18.5067 24.1034 17.8736 25.332 17.285C24.5095 16.8514 23.6639 16.4631 22.799 16.122ZM18.048 13.672C19.159 13.89 20.528 14.246 21.989 14.758C22.141 12.915 21.643 11.786 21.342 11.286C19.966 12.004 18.761 13.014 18.048 13.672Z" fill="#B71C1C"/>
<path d="M18.0501 18.5C18.0501 22.88 14.4001 26.36 11.7701 28.9C11.3301 29.33 9.84009 29.4 9.84009 29.4C10.2101 29.02 10.6301 28.62 11.0801 28.19C13.5801 25.77 17.0501 22.46 17.0501 18.5C17.0501 13.81 15.1601 11.96 13.6701 10.48C13.0101 9.81001 12.4501 9.17001 12.1101 8.39001L12.4201 8.26001C12.7601 8.41001 13.1501 8.58001 13.4501 8.71001C13.6901 9.06001 14.0101 9.40001 14.3801 9.77001C15.9101 11.3 18.0501 13.4 18.0501 18.5Z" fill="#B71C1C"/>
<path d="M42.935 19.794C42.935 19.794 42.3299 19.88 42.16 19.9C33.4 20.87 24.36 23.39 19.19 25.46C17.32 26.21 15.38 27.12 13.61 28.14C13.6 28.15 13.59 28.15 13.57 28.16C12.53 28.76 9.99995 30 7.94995 31.09C10.95 27.9 16.57 25.44 18.81 24.54C23.88 22.51 32.59 20.06 41.16 19.01C40.15 17.83 37.68 15.33 32.82 13.47C29.9799 12.37 25.66 11.75 21.85 11.2C15.79 10.33 12.34 9.75 12.01 8.1C11.94 7.77 11.99 7.44 12.14 7.12C12.47 7.66 12.94 8.04 13.25 8.26C13.4 8.36 13.51 8.41999 13.55 8.43999L13.56 8.45C14.98 9.2 18.81 9.75 22 10.21C25.86 10.77 30.2299 11.4 33.18 12.53C40.0499 15.18 42.42 18.97 42.52 19.13C42.61 19.28 42.935 19.794 42.935 19.794Z" fill="#B71C1C"/>
</svg>
