<svg width="45" height="45" viewBox="0 0 45 45" fill="none" xmlns="http://www.w3.org/2000/svg">
<g clip-path="url(#clip0_25_307)">
<path d="M3.51562 0H41.4844C43.4261 0 45 1.57395 45 3.51562V41.4844C45 43.4261 43.4261 45 41.4844 45H3.51562C1.57395 45 0 43.4261 0 41.4844V3.51562C0 1.57395 1.57395 0 3.51562 0Z" fill="#3178C6"/>
<path d="M26.4582 35.2397V40.0948C27.2479 40.4995 28.1818 40.8029 29.2598 41.0052C30.3379 41.2075 31.4742 41.3086 32.6688 41.3086C33.8328 41.3086 34.9388 41.1973 35.9865 40.9748C37.0341 40.7522 37.9529 40.3856 38.7424 39.8749C39.532 39.3641 40.1571 38.6965 40.6178 37.8721C41.0783 37.0478 41.3086 36.0288 41.3086 34.8151C41.3086 33.9351 41.1769 33.1638 40.9138 32.5012C40.6535 31.8432 40.2666 31.2427 39.7749 30.7338C39.279 30.2179 38.6842 29.7552 37.9909 29.3454C37.2974 28.9359 36.5154 28.549 35.6447 28.1849C35.007 27.9218 34.4352 27.6666 33.9289 27.4187C33.4229 27.1709 32.9926 26.9181 32.6384 26.66C32.284 26.4022 32.0106 26.129 31.8183 25.8407C31.626 25.5524 31.5299 25.2264 31.5299 24.8621C31.5299 24.5283 31.6158 24.2276 31.7879 23.9595C31.96 23.6914 32.2031 23.4613 32.5169 23.2692C32.8307 23.0769 33.2153 22.9279 33.6709 22.8215C34.1263 22.7153 34.6326 22.6622 35.1893 22.6622C35.5943 22.6622 36.022 22.6927 36.4723 22.7533C36.9229 22.8139 37.3758 22.9075 37.8315 23.034C38.2856 23.1599 38.7297 23.3197 39.16 23.512C39.5773 23.6969 39.9763 23.9203 40.352 24.1794V19.643C39.613 19.3598 38.8056 19.15 37.9301 19.0134C37.0545 18.8768 36.0497 18.8086 34.916 18.8086C33.762 18.8086 32.6688 18.9325 31.6362 19.1804C30.6037 19.428 29.6951 19.8149 28.9106 20.3409C28.1261 20.867 27.5061 21.5371 27.0504 22.3513C26.595 23.1655 26.3672 24.139 26.3672 25.2719C26.3672 26.7182 26.7847 27.9522 27.62 28.9738C28.4551 29.9953 29.7229 30.8602 31.4235 31.5682C32.0514 31.8239 32.674 32.092 33.2912 32.3724C33.8683 32.6354 34.3668 32.9084 34.7869 33.1915C35.2071 33.4747 35.5386 33.7832 35.7815 34.117C36.0244 34.4508 36.1459 34.8302 36.1459 35.255C36.1479 35.5608 36.0693 35.8617 35.9181 36.1274C35.7664 36.3953 35.5359 36.6281 35.2273 36.8253C34.9186 37.0225 34.5338 37.1767 34.0733 37.2879C33.6127 37.3992 33.0736 37.4549 32.4561 37.4549C31.4033 37.4549 30.3608 37.2704 29.3282 36.9011C28.2955 36.5319 27.3389 35.9782 26.4582 35.2397ZM18.366 23.1578H24.6094V19.1602H7.20703V23.1578H13.42V40.957H18.366V23.1578Z" fill="white"/>
</g>
<defs>
<clipPath id="clip0_25_307">
<rect width="45" height="45" fill="white"/>
</clipPath>
</defs>
</svg>
